<svg width="20" height="25" viewBox="0 0 20 25" fill="none" xmlns="http://www.w3.org/2000/svg">
<path d="M15 24.4274H4.69063C3.55189 24.4274 2.62876 23.3454 2.62876 22.0107V6.30241H0.566895V3.88574H4.69063V2.67741C4.69063 1.34272 5.61376 0.260742 6.7525 0.260742H12.9381C14.0768 0.260742 15 1.34272 15 2.67741V3.88574H19.1237V6.30241H17.0618V22.0107C17.0618 23.3454 16.1387 24.4274 15 24.4274ZM4.69063 6.30241V22.0107H15V6.30241H4.69063ZM6.7525 2.67741V3.88574H12.9381V2.67741H6.7525ZM12.9381 19.5941H10.8762V8.71908H12.9381V19.5941ZM8.81437 19.5941H6.7525V8.71908H8.81437V19.5941Z" fill="#EB5757"/>
</svg>
