<svg width="52" height="48" viewBox="0 0 52 48" fill="none" xmlns="http://www.w3.org/2000/svg">
<path fill-rule="evenodd" clip-rule="evenodd" d="M0 24C0 10.7452 11.6406 0 26 0C40.3594 0 52 10.7452 52 24C52 37.2548 40.3594 48 26 48C11.6406 48 0 37.2548 0 24ZM26 12C27.3054 12 28.3636 12.9768 28.3636 14.1818V28.5508L34.965 22.4572C35.8881 21.6052 37.3847 21.6052 38.3077 22.4572C39.2308 23.3093 39.2308 24.6907 38.3077 25.5428L27.6713 35.361C27.2154 35.7819 26.6194 35.9948 26.0218 35.9999C25.3888 35.9999 24.7778 35.7756 24.3287 35.361L13.6923 25.5428C12.7692 24.6907 12.7692 23.3093 13.6923 22.4572C14.6153 21.6052 16.1119 21.6052 17.035 22.4572L23.6364 28.5508V14.1818C23.6364 12.9768 24.6946 12 26 12Z" fill="#2D9CDB"/>
</svg>
