<svg width="20" height="20" viewBox="0 0 20 20" fill="none" xmlns="http://www.w3.org/2000/svg">
<path fill-rule="evenodd" clip-rule="evenodd" d="M0 2C0 0.89543 0.89543 1.80816e-08 2 1.80816e-08H9C9.55229 1.80816e-08 10 0.447715 10 1C10 1.55228 9.55229 2 9 2H2V18H18V11C18 10.4477 18.4477 10 19 10C19.5523 10 20 10.4477 20 11V18C20 19.1046 19.1046 20 18 20H2C0.89544 20 0 19.1046 0 18V2ZM15.3474 1.80816e-08C15.6127 -5.04074e-05 15.8672 0.10537 16.0548 0.293048L19.7073 3.9471C20.0976 4.33759 20.0976 4.97051 19.7073 5.361L9.36586 15.707C9.17831 15.8946 8.92389 16 8.6586 16H5C4.44772 16 4 15.5523 4 15V11.36C4 11.0949 4.10519 10.8408 4.29247 10.6533L14.64 0.293317C14.8275 0.105568 15.082 5.04436e-05 15.3474 1.80816e-08ZM15.3478 2.41479L6 11.7738V14H8.24426L17.5861 4.65405L15.3478 2.41479Z" fill="black" fill-opacity="0.65"/>
</svg>
