<svg width="74" height="59" viewBox="0 0 74 59" fill="none" xmlns="http://www.w3.org/2000/svg">
<path d="M0 2.91667C0 1.30584 1.49238 0 3.33333 0H16.6667C18.5076 0 20 1.30584 20 2.91667V14.5833C20 16.1942 18.5076 17.5 16.6667 17.5H3.33333C1.49238 17.5 0 16.1942 0 14.5833V2.91667Z" fill="black" fill-opacity="0.65"/>
<path d="M0 23.3333C0 21.7225 1.49238 20.4167 3.33333 20.4167H16.6667C18.5076 20.4167 20 21.7225 20 23.3333V35C20 36.6108 18.5076 37.9167 16.6667 37.9167H3.33333C1.49238 37.9167 0 36.6108 0 35V23.3333Z" fill="black" fill-opacity="0.65"/>
<path d="M0 43.75C0 42.1392 1.49238 40.8333 3.33333 40.8333H16.6667C18.5076 40.8333 20 42.1392 20 43.75V55.4167C20 57.0275 18.5076 58.3333 16.6667 58.3333H3.33333C1.49238 58.3333 0 57.0275 0 55.4167V43.75Z" fill="black" fill-opacity="0.65"/>
<path d="M26.6667 8.75C26.6667 7.13917 28.159 5.83333 30 5.83333H70C71.8409 5.83333 73.3333 7.13917 73.3333 8.75C73.3333 10.3608 71.8409 11.6667 70 11.6667H30C28.159 11.6667 26.6667 10.3608 26.6667 8.75Z" fill="black" fill-opacity="0.65"/>
<path d="M30 26.25C28.159 26.25 26.6667 27.5558 26.6667 29.1667C26.6667 30.7775 28.159 32.0833 30 32.0833H70C71.8409 32.0833 73.3333 30.7775 73.3333 29.1667C73.3333 27.5558 71.8409 26.25 70 26.25H30Z" fill="black" fill-opacity="0.65"/>
<path d="M30 46.6667C28.159 46.6667 26.6667 47.9725 26.6667 49.5833C26.6667 51.1942 28.159 52.5 30 52.5H70C71.8409 52.5 73.3333 51.1942 73.3333 49.5833C73.3333 47.9725 71.8409 46.6667 70 46.6667H30Z" fill="black" fill-opacity="0.65"/>
</svg>
