<svg width="60" height="55" viewBox="0 0 60 55" fill="none" xmlns="http://www.w3.org/2000/svg">
<path d="M0 3.12496C0 1.62919 1.49238 0.416626 3.33333 0.416626H56.6667C58.5076 0.416626 60 1.62919 60 3.12496V9.80547C60 11.3012 58.5076 12.5138 56.6667 12.5138C54.8257 12.5138 53.3333 11.3012 53.3333 9.80547V5.83329H33.3333V49.1666H43.3333C45.1743 49.1666 46.6667 50.3792 46.6667 51.875C46.6667 53.3707 45.1743 54.5833 43.3333 54.5833H16.6667C14.8257 54.5833 13.3333 53.3707 13.3333 51.875C13.3333 50.3792 14.8257 49.1666 16.6667 49.1666H26.6667V5.83329H6.66667V9.80547C6.66667 11.3012 5.17428 12.5138 3.33333 12.5138C1.49238 12.5138 0 11.3012 0 9.80547V3.12496Z" fill="black" fill-opacity="0.65"/>
</svg>
