<svg width="52" height="48" viewBox="0 0 52 48" fill="none" xmlns="http://www.w3.org/2000/svg">
<path fill-rule="evenodd" clip-rule="evenodd" d="M0 24C0 10.7452 11.6406 0 26 0C40.3594 0 52 10.7452 52 24C52 37.2548 40.3594 48 26 48C11.6406 48 0 37.2548 0 24ZM23.6364 34.3636V19.9946L17.035 26.0882C16.1119 26.9403 14.6153 26.9403 13.6923 26.0882C12.7692 25.2362 12.7692 23.8547 13.6923 23.0027L24.3442 13.1703C24.5587 12.9759 24.8132 12.819 25.0952 12.711C25.952 12.3838 26.9764 12.543 27.6728 13.1859L38.3077 23.0027C39.2308 23.8547 39.2308 25.2362 38.3077 26.0882C37.3847 26.9403 35.8881 26.9403 34.965 26.0882L28.3636 19.9946V34.3636C28.3636 35.5686 27.3054 36.5455 26 36.5455C24.6946 36.5455 23.6364 35.5686 23.6364 34.3636Z" fill="#2D9CDB"/>
</svg>
