<svg width="70" height="57" viewBox="0 0 70 57" fill="none" xmlns="http://www.w3.org/2000/svg">
<path fill-rule="evenodd" clip-rule="evenodd" d="M13.3333 16.7812C13.3333 13.7609 15.945 11.3125 19.1667 11.3125C22.3883 11.3125 25 13.7609 25 16.7812C25 19.8016 22.3883 22.25 19.1667 22.25C15.945 22.25 13.3333 19.8016 13.3333 16.7812ZM19.1667 17.5625C19.6269 17.5625 20 17.2127 20 16.7812C20 16.3498 19.6269 16 19.1667 16C18.7064 16 18.3333 16.3498 18.3333 16.7812C18.3333 17.2127 18.7064 17.5625 19.1667 17.5625Z" fill="black" fill-opacity="0.65"/>
<path fill-rule="evenodd" clip-rule="evenodd" d="M0 6.625C0 3.17322 2.98477 0.375 6.66667 0.375H63.3333C67.0152 0.375 70 3.17322 70 6.625V50.375C70 50.8064 69.9534 51.2278 69.8646 51.6346C69.7278 52.2611 69.4911 52.8534 69.1707 53.3963C68.0346 55.3215 65.8464 56.6251 63.3333 56.6251H6.66667C2.98477 56.6251 0 53.8269 0 50.3751M63.3333 37.8014V6.625H6.66667V36.5807L17.643 26.2904C18.844 25.1644 20.756 25.0651 22.0823 26.0599L27.8995 30.4228L35.8025 21.7789C36.9536 20.5199 38.9531 20.3229 40.3582 21.3302L63.3333 37.8014Z" fill="black" fill-opacity="0.65"/>
</svg>
