<svg width="109" height="103" viewBox="0 0 109 103" fill="none" xmlns="http://www.w3.org/2000/svg">
<path fill-rule="evenodd" clip-rule="evenodd" d="M0 12.875C0 5.76433 6.10012 0 13.625 0H95.375C102.9 0 109 5.76433 109 12.875V90.125C109 97.2357 102.9 103 95.375 103H13.625C6.10012 103 0 97.2357 0 90.125V12.875ZM54.5 25.75C57.5099 25.75 59.95 28.0557 59.95 30.9V46.35H76.3C79.31 46.35 81.75 48.6557 81.75 51.5C81.75 54.3443 79.31 56.65 76.3 56.65H59.95V72.1C59.95 74.9443 57.5099 77.25 54.5 77.25C51.49 77.25 49.05 74.9443 49.05 72.1V56.65H32.7C29.69 56.65 27.25 54.3443 27.25 51.5C27.25 48.6557 29.69 46.35 32.7 46.35H49.05V30.9C49.05 28.0557 51.49 25.75 54.5 25.75Z" fill="black" fill-opacity="0.65"/>
</svg>
